<svg width="24" height="25" viewBox="0 0 24 25" fill="none" xmlns="http://www.w3.org/2000/svg">
<path d="M11 10.3223V12.3223H9V14.3223H7V12.3223H5.8C5.4 13.5223 4.3 14.3223 3 14.3223C1.3 14.3223 0 13.0223 0 11.3223C0 9.62227 1.3 8.32227 3 8.32227C4.3 8.32227 5.4 9.12227 5.8 10.3223H11ZM3 10.3223C2.4 10.3223 2 10.7223 2 11.3223C2 11.9223 2.4 12.3223 3 12.3223C3.6 12.3223 4 11.9223 4 11.3223C4 10.7223 3.6 10.3223 3 10.3223ZM16 14.3223C18.7 14.3223 24 15.6223 24 18.3223V20.3223H8V18.3223C8 15.6223 13.3 14.3223 16 14.3223ZM16 12.3223C13.8 12.3223 12 10.5223 12 8.32227C12 6.12227 13.8 4.32227 16 4.32227C18.2 4.32227 20 6.12227 20 8.32227C20 10.5223 18.2 12.3223 16 12.3223Z" fill="#FF8000"/>
</svg>
