<svg width="24" height="25" viewBox="0 0 24 25" fill="none" xmlns="http://www.w3.org/2000/svg">
<path d="M21.2107 15.0179C21.2989 15.1282 21.3542 15.2612 21.3702 15.4016C21.3861 15.542 21.3621 15.684 21.3009 15.8113C21.2397 15.9386 21.1438 16.0461 21.0242 16.1213C20.9047 16.1965 20.7663 16.2364 20.625 16.2364H4.125V19.9864C4.125 20.1853 4.04598 20.3761 3.90533 20.5167C3.76468 20.6574 3.57391 20.7364 3.375 20.7364C3.17609 20.7364 2.98532 20.6574 2.84467 20.5167C2.70402 20.3761 2.625 20.1853 2.625 19.9864V4.23639C2.62501 4.03748 2.70403 3.84672 2.84468 3.70607C2.98533 3.56542 3.17609 3.4864 3.375 3.48639H20.625C20.7663 3.48639 20.9047 3.5263 21.0242 3.6015C21.1438 3.67671 21.2397 3.78416 21.3009 3.91148C21.3621 4.03881 21.3861 4.18083 21.3702 4.32119C21.3542 4.46155 21.2989 4.59455 21.2107 4.70486L17.0855 9.86139L21.2107 15.0179Z" fill="#FF8000"/>
</svg>
