<svg width="24" height="25" viewBox="0 0 24 25" fill="none" xmlns="http://www.w3.org/2000/svg">
<g clip-path="url(#clip0_1_5482)">
<path d="M21.2599 4.01123H2.73996C1.22904 4.01123 0 5.24039 0 6.75119V19.8712C0 21.382 1.22916 22.6111 2.73996 22.6111H21.2599C22.7707 22.6111 24 21.382 24 19.8712V6.75119C24 5.24039 22.7707 4.01123 21.2599 4.01123ZM12 21.1712H2.73996C2.0232 21.1712 1.44 20.5882 1.44 19.8713V6.75119C1.44 6.03431 2.0232 5.45123 2.73996 5.45123H12V21.1712ZM21.9096 10.4467C21.844 11.5441 21.2294 13.718 19.4053 15.2281C19.9591 15.3508 20.5608 15.4169 21.1957 15.4169V16.8569C19.9296 16.8569 18.7672 16.6266 17.7794 16.2179C16.8568 16.614 15.7432 16.8569 14.4044 16.8569V15.4169C15.0203 15.4169 15.5953 15.3568 16.1284 15.2371C15.1189 14.3952 14.5225 13.2798 14.5225 12.0235H15.9624C15.9624 13.0863 16.6416 14.0056 17.7485 14.6183C18.3054 14.2991 18.7927 13.8848 19.2082 13.3762C19.8835 12.5498 20.2284 11.6336 20.3786 10.9711H14.4044V9.53111H17.0801V8.09279H18.5201V9.53123H21.0467C21.285 9.53123 21.5149 9.63095 21.6776 9.80483C21.8383 9.97511 21.9236 10.2098 21.9096 10.4467Z" fill="#FF8000"/>
<path d="M5.16414 15.5028L4.63014 16.8538H2.71362L5.87622 9.52295H7.79274L10.8823 16.8538H8.8923L8.36874 15.5028H5.16414ZM6.77694 11.3765L5.7087 14.0889H7.82418L6.77694 11.3765Z" fill="#FF8000"/>
</g>
<defs>
<clipPath id="clip0_1_5482">
<rect width="24" height="24" fill="white" transform="translate(0 0.111328)"/>
</clipPath>
</defs>
</svg>
