<svg width="24" height="25" viewBox="0 0 24 25" fill="none" xmlns="http://www.w3.org/2000/svg">
<g clip-path="url(#clip0_1_1631)">
<path d="M11.5967 14.8939C13.7451 15.4204 16.9766 16.7018 20.9107 19.7826V2.68786C16.9766 5.76774 13.7451 7.04961 11.5967 7.57658V14.8939ZM8.28887 22.5752L8.26203 22.5437L8.23001 22.4914C7.93191 21.9837 7.5495 20.9274 7.42235 18.7739V18.7616V16.3119H5.25232H4.02271V24.0163H7.46992C7.48075 24.0163 7.49298 24.013 7.50616 24.0125L7.54856 24.0078L7.60978 24.0116C7.62391 24.0116 7.63662 24.0139 7.64698 24.0158C7.87599 24.01 8.09373 23.9152 8.25395 23.7515C8.41416 23.5878 8.50424 23.368 8.50502 23.1389C8.50352 22.9889 8.46295 22.8418 8.38729 22.7123C8.35889 22.6636 8.32594 22.6177 8.28887 22.5752ZM0.000488281 9.24792V13.2263C0.00259931 13.754 0.213271 14.2593 0.586535 14.6322C0.959799 15.0051 1.46538 15.2153 1.993 15.2169H10.5004V7.25823H1.99395C1.46641 7.2596 0.960832 7.46956 0.587541 7.84233C0.21425 8.21509 0.00354918 8.72038 0.00143681 9.24792H0.000488281ZM23.5324 0.209353H22.4751C22.3515 0.211295 22.2334 0.261286 22.146 0.348744C22.0585 0.436201 22.0085 0.554258 22.0066 0.677926V21.7963C22.0077 21.9201 22.0575 22.0384 22.1452 22.1257C22.2329 22.2131 22.3514 22.2624 22.4751 22.263H23.5324C23.6563 22.2628 23.775 22.2134 23.8626 22.1257C23.9502 22.0381 23.9994 21.9193 23.9995 21.7954V0.674628C23.9989 0.550949 23.9497 0.432481 23.8625 0.344806C23.7752 0.257131 23.657 0.20729 23.5333 0.206055L23.5324 0.209353Z" fill="#FF8000"/>
</g>
<defs>
<clipPath id="clip0_1_1631">
<rect width="24" height="24" fill="white" transform="translate(0 0.111328)"/>
</clipPath>
</defs>
</svg>
