<svg width="24" height="25" viewBox="0 0 24 25" fill="none" xmlns="http://www.w3.org/2000/svg">
<g clip-path="url(#clip0_1_3159)">
<path d="M12.0005 1.29831C11.8287 1.30568 11.6613 1.35513 11.5131 1.44231C11.3649 1.5295 11.2404 1.65174 11.1505 1.79831L6.60047 8.79831C6.52518 8.95424 6.48608 9.12516 6.48608 9.29831C6.48608 9.47146 6.52518 9.64238 6.60047 9.79831C6.68282 9.95146 6.80563 10.0791 6.95551 10.1672C7.10539 10.2554 7.2766 10.3007 7.45047 10.2983H16.5005C16.6723 10.2909 16.8396 10.2415 16.9878 10.1543C17.136 10.0671 17.2606 9.94488 17.3505 9.79831C17.4494 9.65031 17.5021 9.47631 17.5021 9.29831C17.5021 9.12031 17.4494 8.94631 17.3505 8.79831L12.8505 1.79831C12.7681 1.64516 12.6453 1.51755 12.4954 1.42938C12.3455 1.34121 12.1743 1.29588 12.0005 1.29831Z" fill="#FF8000"/>
<path d="M21.5005 21.7983H14.5005C14.2353 21.7983 13.9809 21.693 13.7934 21.5054C13.6058 21.3179 13.5005 21.0636 13.5005 20.7983V13.7983C13.5005 13.5331 13.6058 13.2788 13.7934 13.0912C13.9809 12.9037 14.2353 12.7983 14.5005 12.7983H21.5005C21.7657 12.7983 22.0201 12.9037 22.2076 13.0912C22.3951 13.2788 22.5005 13.5331 22.5005 13.7983V20.7983C22.5005 21.0636 22.3951 21.3179 22.2076 21.5054C22.0201 21.693 21.7657 21.7983 21.5005 21.7983Z" fill="#FF8000"/>
<path d="M6.50049 12.2983C5.51158 12.2983 4.54489 12.5916 3.72264 13.141C2.90039 13.6904 2.25953 14.4713 1.88109 15.3849C1.50265 16.2986 1.40364 17.3039 1.59656 18.2738C1.78949 19.2437 2.26569 20.1346 2.96496 20.8339C3.66422 21.5331 4.55513 22.0093 5.52504 22.2023C6.49494 22.3952 7.50028 22.2962 8.41391 21.9177C9.32754 21.5393 10.1084 20.8984 10.6578 20.0762C11.2072 19.2539 11.5005 18.2872 11.5005 17.2983C11.5005 16.6417 11.3712 15.9916 11.1199 15.3849C10.8686 14.7783 10.5003 14.2271 10.036 13.7628C9.57173 13.2985 9.02054 12.9302 8.41391 12.6789C7.80728 12.4277 7.1571 12.2983 6.50049 12.2983Z" fill="#FF8000"/>
</g>
<defs>
<clipPath id="clip0_1_3159">
<rect width="24" height="24" fill="white" transform="translate(0 0.29834)"/>
</clipPath>
</defs>
</svg>
