<svg width="24" height="25" viewBox="0 0 24 25" fill="none" xmlns="http://www.w3.org/2000/svg">
<g clip-path="url(#clip0_1_4519)">
<path d="M13 8.32227C13 9.38313 12.5786 10.4005 11.8284 11.1507C11.0783 11.9008 10.0609 12.3223 9 12.3223C7.93913 12.3223 6.92172 11.9008 6.17157 11.1507C5.42143 10.4005 5 9.38313 5 8.32227C5 7.2614 5.42143 6.24398 6.17157 5.49384C6.92172 4.74369 7.93913 4.32227 9 4.32227C10.0609 4.32227 11.0783 4.74369 11.8284 5.49384C12.5786 6.24398 13 7.2614 13 8.32227ZM17 18.3223V20.3223H1V18.3223C1 16.1123 4.58 14.3223 9 14.3223C13.42 14.3223 17 16.1123 17 18.3223ZM20.5 14.8223V16.3223H19V14.8223H20.5ZM18.5 9.82227H17V9.32227C17 8.52662 17.3161 7.76355 17.8787 7.20095C18.4413 6.63834 19.2044 6.32227 20 6.32227C20.7956 6.32227 21.5587 6.63834 22.1213 7.20095C22.6839 7.76355 23 8.52662 23 9.32227C23 10.2923 22.5 11.2023 21.71 11.7323L21.41 11.9223C20.84 12.3223 20.5 12.9323 20.5 13.6223V13.8223H19V13.6223C19 12.4323 19.6 11.3223 20.59 10.6723L20.88 10.4823C21.27 10.2223 21.5 9.79227 21.5 9.32227C21.5 8.92444 21.342 8.54291 21.0607 8.26161C20.7794 7.9803 20.3978 7.82227 20 7.82227C19.6022 7.82227 19.2206 7.9803 18.9393 8.26161C18.658 8.54291 18.5 8.92444 18.5 9.32227V9.82227Z" fill="#FF8000"/>
</g>
<defs>
<clipPath id="clip0_1_4519">
<rect width="24" height="24" fill="white" transform="translate(0 0.322266)"/>
</clipPath>
</defs>
</svg>
