<svg width="24" height="25" viewBox="0 0 24 25" fill="none" xmlns="http://www.w3.org/2000/svg">
<path d="M18.8486 19.2163C18.0628 18.9088 17.9603 18.6013 17.9603 18.2596C17.9724 18.0861 18.0214 17.9171 18.1039 17.7639C18.1863 17.6108 18.3005 17.4769 18.4386 17.3712C18.6756 17.156 18.8627 16.8916 18.9866 16.5965C19.1106 16.3014 19.1685 15.9827 19.1562 15.6628C19.1562 14.3644 18.3703 13.271 17.0035 13.271C15.6368 13.271 14.8509 14.3644 14.8509 15.6628C14.8465 15.9816 14.908 16.2979 15.0315 16.5919C15.1549 16.8858 15.3377 17.1512 15.5685 17.3712C15.7066 17.4769 15.8207 17.6108 15.9032 17.7639C15.9857 17.9171 16.0346 18.0861 16.0468 18.2596C16.0468 18.6013 15.9443 18.9088 15.1585 19.2505C14.0309 19.763 12.9717 20.378 12.9375 21.4031C12.9375 22.0865 13.45 22.804 14.0992 22.804H19.9762C20.6254 22.804 21.1379 22.0865 21.0696 21.4031C21.0354 20.378 19.9762 19.6947 18.8486 19.2163Z" fill="#FF8000"/>
<path d="M11.5704 21.4029V21.3346C11.6387 19.4895 13.3472 18.5669 14.3722 18.0886C13.786 17.4178 13.4694 16.5534 13.4838 15.6626C13.4805 15.1254 13.5779 14.5923 13.7709 14.0909H10.9212C10.813 14.0891 10.7097 14.0454 10.6332 13.9688C10.5567 13.8923 10.5129 13.789 10.5112 13.6809V12.895C10.5129 12.7868 10.5567 12.6835 10.6332 12.607C10.7097 12.5305 10.813 12.4867 10.9212 12.485H15.0214C15.5865 12.1189 16.2425 11.9179 16.9156 11.9046C17.5887 11.8914 18.2522 12.0663 18.8312 12.4098V4.25035C18.8321 3.74555 18.6332 3.26092 18.2778 2.90237C17.9225 2.54382 17.4396 2.34053 16.9349 2.33692H4.83922C4.58782 2.33647 4.3388 2.38565 4.10645 2.48165C3.87409 2.57765 3.66298 2.71858 3.48521 2.89635C3.30744 3.07411 3.16652 3.28523 3.07052 3.51758C2.97452 3.74993 2.92533 3.99895 2.92578 4.25035V19.5578C2.92533 19.8092 2.97452 20.0583 3.07052 20.2906C3.16652 20.523 3.30744 20.7341 3.48521 20.9118C3.66298 21.0896 3.87409 21.2305 4.10645 21.3265C4.3388 21.4225 4.58782 21.4717 4.83922 21.4713H11.5704C11.5704 21.4473 11.5704 21.4268 11.5704 21.4029ZM10.5112 7.42802C10.5129 7.31983 10.5567 7.21655 10.6332 7.14004C10.7097 7.06352 10.813 7.01976 10.9212 7.018H16.1148C16.223 7.01976 16.3263 7.06352 16.4028 7.14004C16.4793 7.21655 16.5231 7.31983 16.5248 7.42802V8.2139C16.5281 8.26572 16.5208 8.31767 16.5035 8.36663C16.4862 8.41559 16.4592 8.46055 16.4241 8.49883C16.389 8.53711 16.3466 8.56792 16.2993 8.58941C16.252 8.6109 16.2009 8.62264 16.149 8.62392H10.9212C10.813 8.62216 10.7097 8.5784 10.6332 8.50188C10.5567 8.42536 10.5129 8.32209 10.5112 8.2139V7.42802ZM9.11028 14.4326C9.16002 14.4893 9.18744 14.5621 9.18744 14.6376C9.18744 14.713 9.16002 14.7859 9.11028 14.8426L8.70026 15.2526C8.64354 15.3023 8.57068 15.3298 8.49525 15.3298C8.41981 15.3298 8.34695 15.3023 8.29024 15.2526L7.12851 14.0909L6.00095 15.2184C5.94423 15.2682 5.87137 15.2956 5.79594 15.2956C5.7205 15.2956 5.64764 15.2682 5.59093 15.2184L5.1809 14.8084C5.13117 14.7517 5.10374 14.6788 5.10374 14.6034C5.10374 14.528 5.13117 14.4551 5.1809 14.3984L6.30846 13.2708L5.1809 12.1433C5.13117 12.0866 5.10374 12.0137 5.10374 11.9383C5.10374 11.8628 5.13117 11.79 5.1809 11.7333L5.59093 11.3232C5.64764 11.2735 5.7205 11.2461 5.79594 11.2461C5.87137 11.2461 5.94423 11.2735 6.00095 11.3232L7.12851 12.4508L8.29024 11.2891C8.34695 11.2393 8.41981 11.2119 8.49525 11.2119C8.57068 11.2119 8.64354 11.2393 8.70026 11.2891L9.11028 11.6991C9.16002 11.7558 9.18744 11.8287 9.18744 11.9041C9.18744 11.9795 9.16002 12.0524 9.11028 12.1091L7.94855 13.2708L9.11028 14.4326ZM10.067 6.12962L6.99183 9.20478C6.9385 9.25938 6.8747 9.30265 6.80424 9.33201C6.73379 9.36137 6.65813 9.3762 6.58181 9.37562C6.50526 9.37786 6.42911 9.36378 6.35842 9.33433C6.28772 9.30487 6.22411 9.26071 6.17179 9.20478L4.70254 7.73554C4.67072 7.71167 4.64489 7.68072 4.62709 7.64513C4.6093 7.60955 4.60004 7.57031 4.60004 7.53053C4.60004 7.49074 4.6093 7.45151 4.62709 7.41592C4.64489 7.38034 4.67072 7.34939 4.70254 7.32552L5.11257 6.91549C5.13644 6.88367 5.16739 6.85783 5.20297 6.84004C5.23856 6.82225 5.27779 6.81299 5.31758 6.81299C5.35736 6.81299 5.3966 6.82225 5.43218 6.84004C5.46777 6.85783 5.49872 6.88367 5.52259 6.91549L6.58181 7.97472L9.21278 5.34374C9.23665 5.31192 9.26761 5.28608 9.30319 5.26829C9.33877 5.2505 9.37801 5.24124 9.4178 5.24124C9.45758 5.24124 9.49682 5.2505 9.5324 5.26829C9.56798 5.28608 9.59894 5.31192 9.62281 5.34374L10.0328 5.75377C10.1353 5.89044 10.1353 6.09545 10.067 6.12962Z" fill="#FF8000"/>
</svg>
