<svg width="24" height="25" viewBox="0 0 24 25" fill="none" xmlns="http://www.w3.org/2000/svg">
<g clip-path="url(#clip0_1_5136)">
<path d="M21 16.6113C20.313 16.6113 19.5 15.7983 19.5 15.1113V7.61133C19.5 3.4762 16.1351 0.111328 12 0.111328C7.86487 0.111328 4.5 3.4762 4.5 7.61133V15.1113C4.5 15.7837 3.67237 16.6113 3 16.6113C2.17088 16.6113 1.5 17.2822 1.5 18.1113C1.5 18.9405 2.17088 19.6113 3 19.6113H21C21.8291 19.6113 22.5 18.9405 22.5 18.1113C22.5 17.2822 21.8291 16.6113 21 16.6113Z" fill="#FF8000"/>
<path d="M12 24.1113C13.6568 24.1113 15 22.7681 15 21.1113H9C9 22.7681 10.3432 24.1113 12 24.1113Z" fill="#FF8000"/>
</g>
<defs>
<clipPath id="clip0_1_5136">
<rect width="24" height="24" fill="white" transform="translate(0 0.111328)"/>
</clipPath>
</defs>
</svg>
