<svg width="25" height="25" viewBox="0 0 25 25" fill="none" xmlns="http://www.w3.org/2000/svg">
<path d="M22.9219 4.74854V7.74854C22.9219 8.27897 22.7112 8.78768 22.3361 9.16275C21.961 9.53782 21.4523 9.74854 20.9219 9.74854H15.9219C15.3914 9.74854 14.8827 9.53782 14.5077 9.16275C14.1326 8.78768 13.9219 8.27897 13.9219 7.74854V4.74854C13.9219 4.2181 14.1326 3.70939 14.5077 3.33432C14.8827 2.95925 15.3914 2.74854 15.9219 2.74854H20.9219C21.4523 2.74854 21.961 2.95925 22.3361 3.33432C22.7112 3.70939 22.9219 4.2181 22.9219 4.74854ZM9.92188 15.7485H4.92188C4.39144 15.7485 3.88273 15.9592 3.50766 16.3343C3.13259 16.7094 2.92188 17.2181 2.92188 17.7485V20.7485C2.92188 21.279 3.13259 21.7877 3.50766 22.1627C3.88273 22.5378 4.39144 22.7485 4.92188 22.7485H9.92188C10.4523 22.7485 10.961 22.5378 11.3361 22.1627C11.7112 21.7877 11.9219 21.279 11.9219 20.7485V17.7485C11.9219 17.2181 11.7112 16.7094 11.3361 16.3343C10.961 15.9592 10.4523 15.7485 9.92188 15.7485Z" fill="#FF8000"/>
<path d="M11.9219 4.74854V11.7485C11.9219 12.279 11.7112 12.7877 11.3361 13.1627C10.961 13.5378 10.4523 13.7485 9.92188 13.7485H4.92188C4.39144 13.7485 3.88273 13.5378 3.50766 13.1627C3.13259 12.7877 2.92188 12.279 2.92188 11.7485V4.74854C2.92188 4.2181 3.13259 3.70939 3.50766 3.33432C3.88273 2.95925 4.39144 2.74854 4.92188 2.74854H9.92188C10.4523 2.74854 10.961 2.95925 11.3361 3.33432C11.7112 3.70939 11.9219 4.2181 11.9219 4.74854ZM20.9219 11.7485H15.9219C15.3914 11.7485 14.8827 11.9592 14.5077 12.3343C14.1326 12.7094 13.9219 13.2181 13.9219 13.7485V20.7485C13.9219 21.279 14.1326 21.7877 14.5077 22.1627C14.8827 22.5378 15.3914 22.7485 15.9219 22.7485H20.9219C21.4523 22.7485 21.961 22.5378 22.3361 22.1627C22.7112 21.7877 22.9219 21.279 22.9219 20.7485V13.7485C22.9219 13.2181 22.7112 12.7094 22.3361 12.3343C21.961 11.9592 21.4523 11.7485 20.9219 11.7485Z" fill="#FF8000"/>
</svg>
