<svg width="21" height="17" viewBox="0 0 21 17" fill="none" xmlns="http://www.w3.org/2000/svg">
<path d="M5.5 6.56564V5.7562C5.5 3.52099 7.73858 1.70898 10.5 1.70898C13.2614 1.70898 15.5 3.52099 15.5 5.7562V6.56564C17.7091 6.56564 19.5 8.01525 19.5 9.80342C19.5 11.0019 18.6956 12.0766 17.5 12.6365M5.5 6.56564C3.29086 6.56564 1.5 8.01525 1.5 9.80342C1.5 11.0019 2.3044 12.0766 3.5 12.6365M5.5 6.56564C5.93285 6.56564 6.34965 6.6213 6.74006 6.72424M10.5 8.18453V15.4695M10.5 8.18453L13.5 10.6129M10.5 8.18453L7.5 10.6129" stroke="white" stroke-width="1.5" stroke-linecap="round" stroke-linejoin="round"/>
</svg>
