<svg width="22" height="25" viewBox="0 0 22 25" fill="none" xmlns="http://www.w3.org/2000/svg">
<path d="M19.9219 16.8223C19.2349 16.8223 18.4219 16.0093 18.4219 15.3223V7.82227C18.4219 3.68714 15.057 0.322266 10.9219 0.322266C6.78675 0.322266 3.42188 3.68714 3.42188 7.82227V15.3223C3.42188 15.9946 2.59425 16.8223 1.92188 16.8223C1.09275 16.8223 0.421875 17.4931 0.421875 18.3223C0.421875 19.1514 1.09275 19.8223 1.92188 19.8223H19.9219C20.751 19.8223 21.4219 19.1514 21.4219 18.3223C21.4219 17.4931 20.751 16.8223 19.9219 16.8223Z" fill="white"/>
<path d="M10.9219 24.3223C12.5786 24.3223 13.9219 22.979 13.9219 21.3223H7.92188C7.92188 22.979 9.26512 24.3223 10.9219 24.3223Z" fill="white"/>
</svg>
