<svg width="25" height="25" viewBox="0 0 25 25" fill="none" xmlns="http://www.w3.org/2000/svg">
<path d="M12.9223 1.32236C12.7506 1.32973 12.5832 1.37918 12.435 1.46636C12.2868 1.55354 12.1623 1.67579 12.0723 1.82236L7.52234 8.82236C7.44706 8.97829 7.40796 9.14921 7.40796 9.32236C7.40796 9.49551 7.44706 9.66643 7.52234 9.82236C7.60469 9.97551 7.7275 10.1031 7.87738 10.1913C8.02727 10.2795 8.19847 10.3248 8.37234 10.3224H17.4223C17.5941 10.315 17.7615 10.2655 17.9097 10.1784C18.0579 10.0912 18.1824 9.96893 18.2723 9.82236C18.3712 9.67436 18.424 9.50036 18.424 9.32236C18.424 9.14436 18.3712 8.97036 18.2723 8.82236L13.7723 1.82236C13.69 1.66921 13.5672 1.54159 13.4173 1.45343C13.2674 1.36526 13.0962 1.31993 12.9223 1.32236Z" fill="white"/>
<path d="M22.4224 21.8223H15.4224C15.1571 21.8223 14.9028 21.7169 14.7153 21.5294C14.5277 21.3418 14.4224 21.0875 14.4224 20.8223V13.8223C14.4224 13.557 14.5277 13.3027 14.7153 13.1152C14.9028 12.9276 15.1571 12.8223 15.4224 12.8223H22.4224C22.6876 12.8223 22.9419 12.9276 23.1295 13.1152C23.317 13.3027 23.4224 13.557 23.4224 13.8223V20.8223C23.4224 21.0875 23.317 21.3418 23.1295 21.5294C22.9419 21.7169 22.6876 21.8223 22.4224 21.8223Z" fill="white"/>
<path d="M7.42237 12.3223C6.43346 12.3223 5.46676 12.6155 4.64451 13.1649C3.82227 13.7143 3.18141 14.4952 2.80297 15.4088C2.42453 16.3225 2.32551 17.3278 2.51844 18.2977C2.71137 19.2676 3.18757 20.1585 3.88683 20.8578C4.58609 21.5571 5.47701 22.0333 6.44691 22.2262C7.41682 22.4191 8.42215 22.3201 9.33578 21.9417C10.2494 21.5632 11.0303 20.9224 11.5797 20.1001C12.1291 19.2779 12.4224 18.3112 12.4224 17.3223C12.4224 16.6657 12.293 16.0155 12.0418 15.4088C11.7905 14.8022 11.4222 14.251 10.9579 13.7867C10.4936 13.3224 9.94241 12.9541 9.33578 12.7029C8.72915 12.4516 8.07898 12.3223 7.42237 12.3223Z" fill="white"/>
</svg>
