<svg width="25" height="19" viewBox="0 0 25 19" fill="none" xmlns="http://www.w3.org/2000/svg">
<path d="M22.1818 0.222168H3.66184C2.15092 0.222168 0.921875 1.45133 0.921875 2.96213V16.0821C0.921875 17.5929 2.15104 18.8221 3.66184 18.8221H22.1818C23.6926 18.8221 24.9219 17.5929 24.9219 16.0821V2.96213C24.9219 1.45133 23.6926 0.222168 22.1818 0.222168ZM12.9219 17.3822H3.66184C2.94508 17.3822 2.36188 16.7991 2.36188 16.0822V2.96213C2.36188 2.24525 2.94508 1.66217 3.66184 1.66217H12.9219V17.3822ZM22.8315 6.65765C22.7658 7.75505 22.1513 9.92897 20.3272 11.439C20.881 11.5617 21.4827 11.6278 22.1176 11.6278V13.0678C20.8515 13.0678 19.689 12.8375 18.7013 12.4288C17.7786 12.8249 16.665 13.0678 15.3263 13.0678V11.6278C15.9422 11.6278 16.5172 11.5677 17.0502 11.448C16.0408 10.6061 15.4444 9.49073 15.4444 8.23445H16.8843C16.8843 9.29729 17.5635 10.2165 18.6704 10.8292C19.2273 10.51 19.7146 10.0958 20.13 9.58709C20.8054 8.76077 21.1503 7.84457 21.3005 7.18205H15.3263V5.74205H18.002V4.30373H19.442V5.74217H21.9686C22.2069 5.74217 22.4368 5.84189 22.5995 6.01577C22.7602 6.18605 22.8455 6.42077 22.8315 6.65765Z" fill="white"/>
<path d="M6.08601 11.7137L5.55202 13.0647H3.6355L6.7981 5.73389H8.71462L11.8041 13.0647H9.81418L9.29062 11.7137H6.08601ZM7.69881 7.5874L6.63058 10.2999H8.74606L7.69881 7.5874Z" fill="white"/>
</svg>
