<svg width="25" height="25" viewBox="0 0 25 25" fill="none" xmlns="http://www.w3.org/2000/svg">
<g clip-path="url(#clip0_1_4330)">
<path d="M13.9219 8.32227C13.9219 9.38313 13.5004 10.4005 12.7503 11.1507C12.0002 11.9008 10.9827 12.3223 9.92188 12.3223C8.86101 12.3223 7.84359 11.9008 7.09345 11.1507C6.3433 10.4005 5.92188 9.38313 5.92188 8.32227C5.92188 7.2614 6.3433 6.24398 7.09345 5.49384C7.84359 4.74369 8.86101 4.32227 9.92188 4.32227C10.9827 4.32227 12.0002 4.74369 12.7503 5.49384C13.5004 6.24398 13.9219 7.2614 13.9219 8.32227ZM17.9219 18.3223V20.3223H1.92188V18.3223C1.92188 16.1123 5.50187 14.3223 9.92188 14.3223C14.3419 14.3223 17.9219 16.1123 17.9219 18.3223ZM21.4219 14.8223V16.3223H19.9219V14.8223H21.4219ZM19.4219 9.82227H17.9219V9.32227C17.9219 8.52662 18.2379 7.76355 18.8006 7.20095C19.3632 6.63834 20.1262 6.32227 20.9219 6.32227C21.7175 6.32227 22.4806 6.63834 23.0432 7.20095C23.6058 7.76355 23.9219 8.52662 23.9219 9.32227C23.9219 10.2923 23.4219 11.2023 22.6319 11.7323L22.3319 11.9223C21.7619 12.3223 21.4219 12.9323 21.4219 13.6223V13.8223H19.9219V13.6223C19.9219 12.4323 20.5219 11.3223 21.5119 10.6723L21.8019 10.4823C22.1919 10.2223 22.4219 9.79227 22.4219 9.32227C22.4219 8.92444 22.2638 8.54291 21.9825 8.26161C21.7012 7.9803 21.3197 7.82227 20.9219 7.82227C20.524 7.82227 20.1425 7.9803 19.8612 8.26161C19.5799 8.54291 19.4219 8.92444 19.4219 9.32227V9.82227Z" fill="white"/>
</g>
<defs>
<clipPath id="clip0_1_4330">
<rect width="24" height="24" fill="white" transform="translate(0.921875 0.322266)"/>
</clipPath>
</defs>
</svg>
