<svg width="24" height="25" viewBox="0 0 24 25" fill="none" xmlns="http://www.w3.org/2000/svg">
<path d="M22 4.74854V7.74854C22 8.27897 21.7893 8.78768 21.4142 9.16275C21.0391 9.53782 20.5304 9.74854 20 9.74854H15C14.4696 9.74854 13.9609 9.53782 13.5858 9.16275C13.2107 8.78768 13 8.27897 13 7.74854V4.74854C13 4.2181 13.2107 3.70939 13.5858 3.33432C13.9609 2.95925 14.4696 2.74854 15 2.74854H20C20.5304 2.74854 21.0391 2.95925 21.4142 3.33432C21.7893 3.70939 22 4.2181 22 4.74854ZM9 15.7485H4C3.46957 15.7485 2.96086 15.9592 2.58579 16.3343C2.21071 16.7094 2 17.2181 2 17.7485V20.7485C2 21.279 2.21071 21.7877 2.58579 22.1627C2.96086 22.5378 3.46957 22.7485 4 22.7485H9C9.53043 22.7485 10.0391 22.5378 10.4142 22.1627C10.7893 21.7877 11 21.279 11 20.7485V17.7485C11 17.2181 10.7893 16.7094 10.4142 16.3343C10.0391 15.9592 9.53043 15.7485 9 15.7485Z" fill="white"/>
<path d="M11 4.74854V11.7485C11 12.279 10.7893 12.7877 10.4142 13.1627C10.0391 13.5378 9.53043 13.7485 9 13.7485H4C3.46957 13.7485 2.96086 13.5378 2.58579 13.1627C2.21071 12.7877 2 12.279 2 11.7485V4.74854C2 4.2181 2.21071 3.70939 2.58579 3.33432C2.96086 2.95925 3.46957 2.74854 4 2.74854H9C9.53043 2.74854 10.0391 2.95925 10.4142 3.33432C10.7893 3.70939 11 4.2181 11 4.74854ZM20 11.7485H15C14.4696 11.7485 13.9609 11.9592 13.5858 12.3343C13.2107 12.7094 13 13.2181 13 13.7485V20.7485C13 21.279 13.2107 21.7877 13.5858 22.1627C13.9609 22.5378 14.4696 22.7485 15 22.7485H20C20.5304 22.7485 21.0391 22.5378 21.4142 22.1627C21.7893 21.7877 22 21.279 22 20.7485V13.7485C22 13.2181 21.7893 12.7094 21.4142 12.3343C21.0391 11.9592 20.5304 11.7485 20 11.7485Z" fill="white"/>
</svg>
