<svg width="25" height="25" viewBox="0 0 25 25" fill="none" xmlns="http://www.w3.org/2000/svg">
<path d="M19.7705 19.6055C18.9846 19.298 18.8821 18.9904 18.8821 18.6488C18.8943 18.4752 18.9433 18.3063 19.0257 18.1531C19.1082 17.9999 19.2223 17.8661 19.3605 17.7604C19.5975 17.5452 19.7846 17.2808 19.9085 16.9856C20.0325 16.6905 20.0903 16.3718 20.078 16.0519C20.078 14.7535 19.2922 13.6602 17.9254 13.6602C16.5587 13.6602 15.7728 14.7535 15.7728 16.0519C15.7684 16.3708 15.8299 16.6871 15.9533 16.981C16.0768 17.275 16.2596 17.5403 16.4903 17.7604C16.6285 17.8661 16.7426 17.9999 16.8251 18.1531C16.9076 18.3063 16.9565 18.4752 16.9687 18.6488C16.9687 18.9904 16.8662 19.298 16.0803 19.6396C14.9528 20.1522 13.8935 20.7672 13.8594 21.7923C13.8594 22.4756 14.3719 23.1932 15.0211 23.1932H20.8981C21.5473 23.1932 22.0598 22.4756 21.9915 21.7923C21.9573 20.7672 20.8981 20.0838 19.7705 19.6055Z" fill="white"/>
<path d="M12.4923 21.7921V21.7238C12.5606 19.8787 14.269 18.9561 15.2941 18.4777C14.7078 17.807 14.3913 16.9425 14.4057 16.0518C14.4024 15.5145 14.4998 14.9814 14.6927 14.48H11.8431C11.7349 14.4783 11.6316 14.4345 11.5551 14.358C11.4786 14.2815 11.4348 14.1782 11.4331 14.07V13.2841C11.4348 13.1759 11.4786 13.0727 11.5551 12.9962C11.6316 12.9196 11.7349 12.8759 11.8431 12.8741H15.9433C16.5083 12.5081 17.1644 12.3071 17.8375 12.2938C18.5106 12.2805 19.174 12.4555 19.7531 12.7989V4.63951C19.754 4.13471 19.555 3.65008 19.1997 3.29153C18.8444 2.93298 18.3615 2.72969 17.8567 2.72608H5.76109C5.50969 2.72563 5.26067 2.77481 5.02832 2.87081C4.79597 2.96681 4.58486 3.10774 4.40709 3.28551C4.22932 3.46327 4.08839 3.67439 3.99239 3.90674C3.89639 4.13909 3.84721 4.38811 3.84766 4.63951V19.947C3.84721 20.1984 3.89639 20.4474 3.99239 20.6798C4.08839 20.9121 4.22932 21.1232 4.40709 21.301C4.58486 21.4788 4.79597 21.6197 5.02832 21.7157C5.26067 21.8117 5.50969 21.8609 5.76109 21.8604H12.4923C12.4923 21.8365 12.4923 21.816 12.4923 21.7921ZM11.4331 7.81718C11.4348 7.70899 11.4786 7.60571 11.5551 7.5292C11.6316 7.45268 11.7349 7.40892 11.8431 7.40716H17.0367C17.1449 7.40892 17.2482 7.45268 17.3247 7.5292C17.4012 7.60571 17.445 7.70899 17.4467 7.81718V8.60306C17.4499 8.65488 17.4427 8.70683 17.4254 8.75579C17.4081 8.80475 17.3811 8.84971 17.346 8.88799C17.3109 8.92627 17.2684 8.95708 17.2212 8.97857C17.1739 9.00006 17.1228 9.0118 17.0709 9.01308H11.8431C11.7349 9.01132 11.6316 8.96756 11.5551 8.89104C11.4786 8.81452 11.4348 8.71125 11.4331 8.60306V7.81718ZM10.0322 14.8217C10.0819 14.8784 10.1093 14.9513 10.1093 15.0267C10.1093 15.1022 10.0819 15.175 10.0322 15.2317L9.62213 15.6418C9.56542 15.6915 9.49256 15.7189 9.41712 15.7189C9.34169 15.7189 9.26883 15.6915 9.21211 15.6418L8.05038 14.48L6.92282 15.6076C6.86611 15.6573 6.79325 15.6848 6.71781 15.6848C6.64238 15.6848 6.56952 15.6573 6.5128 15.6076L6.10278 15.1976C6.05304 15.1409 6.02562 15.068 6.02562 14.9926C6.02562 14.9171 6.05304 14.8443 6.10278 14.7876L7.23034 13.66L6.10278 12.5324C6.05304 12.4757 6.02562 12.4029 6.02562 12.3274C6.02562 12.252 6.05304 12.1791 6.10278 12.1224L6.5128 11.7124C6.56952 11.6627 6.64238 11.6352 6.71781 11.6352C6.79325 11.6352 6.86611 11.6627 6.92282 11.7124L8.05038 12.8399L9.21211 11.6782C9.26883 11.6285 9.34169 11.6011 9.41712 11.6011C9.49256 11.6011 9.56542 11.6285 9.62213 11.6782L10.0322 12.0882C10.0819 12.145 10.1093 12.2178 10.1093 12.2933C10.1093 12.3687 10.0819 12.4415 10.0322 12.4983L8.87043 13.66L10.0322 14.8217ZM10.9889 6.51878L7.91371 9.59394C7.86037 9.64854 7.79657 9.69181 7.72612 9.72117C7.65566 9.75053 7.58001 9.76536 7.50369 9.76478C7.42714 9.76702 7.35098 9.75294 7.28029 9.72349C7.2096 9.69403 7.14598 9.64987 7.09366 9.59394L5.62442 8.1247C5.59259 8.10083 5.56676 8.06988 5.54897 8.03429C5.53118 7.99871 5.52191 7.95947 5.52191 7.91969C5.52191 7.8799 5.53118 7.84067 5.54897 7.80508C5.56676 7.7695 5.59259 7.73855 5.62442 7.71468L6.03444 7.30465C6.05831 7.27283 6.08926 7.24699 6.12485 7.2292C6.16043 7.21141 6.19967 7.20215 6.23945 7.20215C6.27924 7.20215 6.31847 7.21141 6.35406 7.2292C6.38964 7.24699 6.42059 7.27283 6.44446 7.30465L7.50369 8.36388L10.1347 5.7329C10.1585 5.70108 10.1895 5.67524 10.2251 5.65745C10.2606 5.63966 10.2999 5.6304 10.3397 5.6304C10.3795 5.6304 10.4187 5.63966 10.4543 5.65745C10.4899 5.67524 10.5208 5.70108 10.5447 5.7329L10.9547 6.14293C11.0572 6.2796 11.0572 6.48461 10.9889 6.51878Z" fill="white"/>
</svg>
