<svg width="36" height="40" viewBox="0 0 36 40" fill="none" xmlns="http://www.w3.org/2000/svg">
<path d="M35.1431 9.20492V39.9998H1.7334V0H25.9382L30.2256 4.28742L35.1431 9.20492Z" fill="#B12A27"/>
<path d="M16.8796 2.6792H0.856445V9.84857H16.8796V2.6792Z" fill="#F2F2F2"/>
<path d="M6.60301 5.02977C6.53231 4.85898 6.43809 4.70586 6.30855 4.57633C6.17902 4.4468 6.01996 4.34078 5.83738 4.27008C5.64895 4.19352 5.43691 4.1582 5.20137 4.1582H3.44043V8.70469H4.32973V6.99086H5.20137C5.43691 6.99086 5.64895 6.95555 5.83738 6.87898C6.01996 6.80828 6.17895 6.70234 6.30855 6.57273C6.43816 6.4432 6.53238 6.29594 6.60301 6.1193C6.66777 5.94852 6.70316 5.76594 6.70316 5.5775C6.70309 5.38312 6.66777 5.20055 6.60301 5.02977ZM5.64301 6.025C5.5252 6.13687 5.36035 6.19578 5.16012 6.19578H4.32973V4.94727H5.16012C5.36035 4.94727 5.52527 5.00617 5.64301 5.12391C5.75488 5.23578 5.81379 5.38891 5.81379 5.57734C5.81387 5.76 5.75496 5.91312 5.64301 6.025Z" fill="#B12A27"/>
<path d="M10.855 5.91906C10.8491 5.76008 10.8432 5.61875 10.8255 5.48914C10.8079 5.35953 10.7784 5.2418 10.7372 5.12992C10.6959 5.02391 10.6429 4.91789 10.5722 4.82367C10.4133 4.59398 10.2189 4.4232 10.001 4.31719C9.77716 4.21117 9.51216 4.1582 9.20005 4.1582H7.56287V8.70469H9.20005C9.51216 8.70469 9.77716 8.65172 10.001 8.5457C10.2189 8.43969 10.4133 8.26891 10.5722 8.03922C10.6429 7.945 10.6959 7.83898 10.7372 7.73297C10.7784 7.62109 10.8079 7.50328 10.8255 7.37375C10.8432 7.24422 10.849 7.10281 10.855 6.94383C10.8608 6.7907 10.8608 6.61992 10.8608 6.43148C10.8608 6.24305 10.8608 6.07219 10.855 5.91906ZM9.96568 6.89086C9.96568 7.02633 9.95388 7.13234 9.94209 7.22656C9.93029 7.31492 9.91263 7.39734 9.88912 7.45625C9.8656 7.52102 9.83021 7.57992 9.78904 7.63289C9.64177 7.82133 9.41802 7.90969 9.12357 7.90969H8.4463V4.94734H9.12357C9.41802 4.94734 9.64185 5.04156 9.78904 5.23C9.83029 5.28297 9.8656 5.33602 9.88912 5.40078C9.91263 5.46555 9.93037 5.54211 9.94209 5.63633C9.95388 5.72469 9.96568 5.83656 9.96568 5.96609C9.97154 6.0957 9.97154 6.25469 9.97154 6.43133C9.97162 6.60812 9.97162 6.76125 9.96568 6.89086Z" fill="#B12A27"/>
<path d="M14.6535 4.94734V4.1582H11.6559V8.70469H12.5452V6.86141H14.3414V6.06633H12.5452V4.94734H14.6535Z" fill="#B12A27"/>
<path d="M6.60301 5.02977C6.53231 4.85898 6.43809 4.70586 6.30855 4.57633C6.17902 4.4468 6.01996 4.34078 5.83738 4.27008C5.64895 4.19352 5.43691 4.1582 5.20137 4.1582H3.44043V8.70469H4.32973V6.99086H5.20137C5.43691 6.99086 5.64895 6.95555 5.83738 6.87898C6.01996 6.80828 6.17895 6.70234 6.30855 6.57273C6.43816 6.4432 6.53238 6.29594 6.60301 6.1193C6.66777 5.94852 6.70316 5.76594 6.70316 5.5775C6.70309 5.38312 6.66777 5.20055 6.60301 5.02977ZM5.64301 6.025C5.5252 6.13687 5.36035 6.19578 5.16012 6.19578H4.32973V4.94727H5.16012C5.36035 4.94727 5.52527 5.00617 5.64301 5.12391C5.75488 5.23578 5.81379 5.38891 5.81379 5.57734C5.81387 5.76 5.75496 5.91312 5.64301 6.025Z" fill="#B12A27"/>
<path opacity="0.08" d="M35.1431 9.2051V40H1.7334V32.7798L17.3517 17.1615L18.2763 16.2369L18.7886 15.7245L19.6426 14.8706L20.6556 13.8576L30.2256 4.2876L35.1431 9.2051Z" fill="#040000"/>
<path d="M35.1431 9.20594H25.9371V0L35.1431 9.20594Z" fill="#771B1B"/>
<path d="M30.3724 28.9578C30.178 28.6163 29.913 28.2924 29.5832 27.9979C29.3124 27.7506 28.9943 27.5209 28.635 27.3088C27.1863 26.4549 25.1192 26.0427 22.31 26.0427H22.0273C21.8742 25.9013 21.7152 25.76 21.5503 25.6128C20.4843 24.6528 19.6363 23.6104 18.9767 22.4503C20.2723 19.5939 20.8907 17.0498 20.8141 14.8825C20.8023 14.5174 20.7493 14.1758 20.6551 13.8578C20.5138 13.3454 20.2782 12.8919 19.9484 12.5209C19.9425 12.515 19.9425 12.515 19.9366 12.5091C19.4125 11.9202 18.6822 11.5845 17.9401 11.5845C17.1922 11.5845 16.5032 11.9084 16.0025 12.5032C15.5079 13.0921 15.2429 13.899 15.2311 14.8471C15.2134 16.2959 15.3311 17.6681 15.5786 18.9342C15.6021 19.0344 15.6198 19.1345 15.6433 19.2345C15.8907 20.383 16.2558 21.4724 16.7269 22.4854C16.1733 23.6103 15.6139 24.582 15.2251 25.2416C14.9307 25.7422 14.6068 26.2663 14.2711 26.7905C12.7575 27.0614 11.4736 27.3912 10.3547 27.8035C8.84122 28.3512 7.62802 29.0578 6.75637 29.9C6.19098 30.4418 5.80817 31.019 5.61973 31.6197C5.4195 32.2381 5.4313 32.8564 5.65505 33.41C5.86114 33.9224 6.23216 34.3523 6.72692 34.6467C6.84473 34.7174 6.96841 34.7763 7.09794 34.8293C7.47489 34.9824 7.88708 35.0649 8.317 35.0649C9.31231 35.0649 10.337 34.6349 11.2027 33.8635C12.8164 32.4206 14.483 30.1003 15.4665 28.6338C16.2733 28.5101 17.1508 28.4041 18.1403 28.2981C19.3064 28.1803 20.337 28.1096 21.2734 28.0742C21.562 28.3334 21.8388 28.5807 22.1038 28.8163C23.5761 30.1296 24.695 31.0778 25.708 31.7432C25.708 31.7491 25.7139 31.7491 25.7198 31.7491C26.1203 32.0141 26.5031 32.232 26.8859 32.4087C27.3158 32.6089 27.7516 32.7149 28.1992 32.7149C28.7646 32.7149 29.2946 32.5442 29.7363 32.2321C30.1839 31.9081 30.5078 31.4429 30.655 30.9188C30.8258 30.2888 30.7257 29.588 30.3724 28.9578ZM17.3512 17.1617C17.2688 16.4313 17.2334 15.6717 17.2452 14.8707C17.257 14.111 17.5338 13.5986 17.9401 13.5986C18.2464 13.5986 18.5703 13.8754 18.7175 14.4054C18.7587 14.5644 18.7882 14.747 18.794 14.9531C18.8058 15.2004 18.7999 15.4596 18.7882 15.7246C18.7529 16.4725 18.6232 17.2675 18.3995 18.1215C18.264 18.6692 18.0874 19.2405 17.8695 19.8353C17.6222 18.9991 17.4454 18.1098 17.3512 17.1617ZM7.52794 32.6621C7.42778 32.4148 7.53973 31.9378 8.15223 31.3488C9.08864 30.4537 10.555 29.747 12.5986 29.211C12.21 29.741 11.8272 30.224 11.4561 30.6656C10.8907 31.3488 10.349 31.926 9.86012 32.3617C9.442 32.7386 8.98262 32.9742 8.54684 33.0331C8.47028 33.0449 8.39372 33.0508 8.31716 33.0508C7.93426 33.0509 7.62216 32.8978 7.52794 32.6621ZM16.939 26.4019L16.9802 26.3371L16.9154 26.3489C16.9272 26.3195 16.9449 26.29 16.9625 26.2665C17.2099 25.8484 17.522 25.3124 17.8577 24.6941L17.8872 24.7588L17.9637 24.5999C18.2111 24.9532 18.482 25.3007 18.7647 25.6363C18.9001 25.7953 19.0415 25.9485 19.1828 26.1016L19.0886 26.1074L19.171 26.184C18.9295 26.2017 18.6763 26.2253 18.423 26.2488C18.264 26.2664 18.0991 26.2782 17.9342 26.2959C17.5927 26.3312 17.257 26.3666 16.939 26.4019ZM26.8506 30.0767C26.1497 29.6292 25.3665 28.999 24.4007 28.1568C25.7729 28.2981 26.8506 28.5985 27.6162 29.0461C27.9519 29.2405 28.2051 29.4407 28.3759 29.635C28.6586 29.9353 28.7587 30.2063 28.7057 30.3888C28.6586 30.5714 28.4525 30.6951 28.1992 30.6951C28.0519 30.6951 27.8989 30.6598 27.7398 30.5832C27.4689 30.4537 27.1862 30.2946 26.8859 30.1003C26.8741 30.1003 26.8624 30.0885 26.8506 30.0767Z" fill="#F2F2F2"/>
</svg>
