<svg width="25" height="25" viewBox="0 0 25 25" fill="none" xmlns="http://www.w3.org/2000/svg">
<path d="M22.1325 15.2288C22.2208 15.3391 22.2761 15.4721 22.292 15.6125C22.308 15.7528 22.284 15.8948 22.2228 16.0222C22.1616 16.1495 22.0657 16.2569 21.9461 16.3322C21.8265 16.4074 21.6881 16.4473 21.5469 16.4473H5.04687V20.1973C5.04687 20.3962 4.96786 20.5869 4.8272 20.7276C4.68655 20.8682 4.49579 20.9473 4.29687 20.9473C4.09796 20.9473 3.9072 20.8682 3.76655 20.7276C3.62589 20.5869 3.54688 20.3962 3.54688 20.1973V4.44727C3.54688 4.24836 3.62591 4.0576 3.76656 3.91695C3.90721 3.7763 4.09797 3.69728 4.29687 3.69727H21.5469C21.6881 3.69727 21.8265 3.73717 21.9461 3.81238C22.0657 3.88758 22.1616 3.99504 22.2228 4.12236C22.284 4.24968 22.308 4.3917 22.292 4.53206C22.2761 4.67243 22.2208 4.80542 22.1325 4.91574L18.0074 10.0723L22.1325 15.2288Z" fill="white"/>
</svg>
