<svg width="25" height="25" viewBox="0 0 25 25" fill="none" xmlns="http://www.w3.org/2000/svg">
<g clip-path="url(#clip0_1_4315)">
<path d="M11.9219 10.3223V12.3223H9.92188V14.3223H7.92188V12.3223H6.72188C6.32188 13.5223 5.22188 14.3223 3.92188 14.3223C2.22187 14.3223 0.921875 13.0223 0.921875 11.3223C0.921875 9.62227 2.22187 8.32227 3.92188 8.32227C5.22188 8.32227 6.32188 9.12227 6.72188 10.3223H11.9219ZM3.92188 10.3223C3.32188 10.3223 2.92188 10.7223 2.92188 11.3223C2.92188 11.9223 3.32188 12.3223 3.92188 12.3223C4.52187 12.3223 4.92188 11.9223 4.92188 11.3223C4.92188 10.7223 4.52187 10.3223 3.92188 10.3223ZM16.9219 14.3223C19.6219 14.3223 24.9219 15.6223 24.9219 18.3223V20.3223H8.92188V18.3223C8.92188 15.6223 14.2219 14.3223 16.9219 14.3223ZM16.9219 12.3223C14.7219 12.3223 12.9219 10.5223 12.9219 8.32227C12.9219 6.12227 14.7219 4.32227 16.9219 4.32227C19.1219 4.32227 20.9219 6.12227 20.9219 8.32227C20.9219 10.5223 19.1219 12.3223 16.9219 12.3223Z" fill="white"/>
</g>
<defs>
<clipPath id="clip0_1_4315">
<rect width="24" height="24" fill="white" transform="translate(0.921875 0.322266)"/>
</clipPath>
</defs>
</svg>
