<svg width="25" height="25" viewBox="0 0 25 25" fill="none" xmlns="http://www.w3.org/2000/svg">
<path d="M12.5186 15.1048C14.6669 15.6313 17.8985 16.9127 21.8326 19.9936V2.89879C17.8985 5.97868 14.6669 7.26055 12.5186 7.78752V15.1048ZM9.21075 22.7862L9.1839 22.7546L9.15188 22.7023C8.85378 22.1947 8.47137 21.1384 8.34422 18.9848V18.9726V16.5228H6.17419H4.94458V24.2272H8.39179C8.40262 24.2272 8.41485 24.2239 8.42804 24.2234L8.47043 24.2187L8.53166 24.2225C8.54579 24.2225 8.55849 24.2248 8.56885 24.2267C8.79786 24.221 9.01561 24.1262 9.17582 23.9624C9.33604 23.7987 9.42611 23.5789 9.4269 23.3499C9.4254 23.1998 9.38482 23.0528 9.30916 22.9232C9.28077 22.8745 9.24782 22.8286 9.21075 22.7862ZM0.922363 9.45885V13.4373C0.924474 13.9649 1.13515 14.4703 1.50841 14.8432C1.88167 15.2161 2.38725 15.4263 2.91488 15.4279H11.4222V7.46917H2.91582C2.38829 7.47053 1.88271 7.6805 1.50942 8.05326C1.13613 8.42602 0.925424 8.93132 0.923312 9.45885H0.922363ZM24.4543 0.42029H23.397C23.2734 0.422233 23.1553 0.472224 23.0679 0.559681C22.9804 0.647138 22.9304 0.765195 22.9284 0.888863V22.0072C22.9296 22.131 22.9794 22.2493 23.067 22.3367C23.1547 22.424 23.2733 22.4733 23.397 22.4739H24.4543C24.5782 22.4737 24.6969 22.4243 24.7845 22.3367C24.8721 22.249 24.9213 22.1302 24.9214 22.0063V0.885565C24.9208 0.761887 24.8716 0.643418 24.7843 0.555743C24.6971 0.468068 24.5789 0.418227 24.4552 0.416992L24.4543 0.42029Z" fill="white"/>
</svg>
